<?xml version="1.0" encoding="utf-8"?>
<!-- Generator: Adobe Illustrator 19.0.0, SVG Export Plug-In . SVG Version: 6.00 Build 0)  -->
<svg version="1.1" id="Layer_1" xmlns="http://www.w3.org/2000/svg" xmlns:xlink="http://www.w3.org/1999/xlink" x="0px" y="0px"
	 viewBox="-402.8 253.1 117.2 62.7" style="enable-background:new -402.8 253.1 117.2 62.7;" xml:space="preserve">
<style type="text/css">
	.st0{fill:#FFFFFF;}
</style>
<g id="XMLID_2_">
	<g id="XMLID_68_">
		<path id="XMLID_74_" class="st0" d="M-378.1,315.7c-0.3,0.1-0.8,0.1-1.5,0.1c-2,0-4-0.4-5.9-1.2c-1.9-0.8-3.6-1.9-5.1-3.4
			c-1.5-1.4-2.7-3.2-3.5-5.2c-0.9-2-1.3-4.3-1.3-6.8v-19.6c0-0.7-0.3-1-1-1h-5.4c-0.7,0-1-0.3-1-1l0.2-3.4l11.3-12l0.7-0.3h3
			c0.7,0,1,0.3,1,1v6.9c0,0.7,0.3,1,1,1h6.9c0.7,0,1,0.3,1,1v5.9c0,0.7-0.3,1-1,1h-6.9c-0.7,0-1,0.3-1,1v19.6c0,2,0.7,3.9,2.2,5.7
			c0.5,0.5,1.2,1,2.2,1.4s2.2,1,3.7,1.6c0.5,0.2,0.8,0.5,0.8,1v5.9C-377.7,315.3-377.9,315.6-378.1,315.7z"/>
		<path id="XMLID_71_" class="st0" d="M-336.7,315h-5.9c-0.7,0-1-0.3-1-1v-1.2c0-0.7-0.2-1.1-0.7-1.1c-0.3,0-0.8,0.2-1.3,0.5
			c-0.5,0.3-1.2,0.7-2,1.1c-0.8,0.4-1.7,0.8-2.8,1.1c-1.1,0.3-2.3,0.5-3.8,0.5c-2.5,0-4.8-0.4-6.8-1.2c-2.1-0.8-3.8-2-5.4-3.4
			c-1.5-1.5-2.7-3.2-3.5-5.3c-0.9-2-1.3-4.3-1.3-6.8v-10.8c0-2.4,0.4-4.6,1.2-6.7c0.8-2,2-3.8,3.4-5.3c1.5-1.5,3.2-2.6,5.3-3.5
			c2.1-0.8,4.3-1.3,6.7-1.3c1.2,0,2.4,0.2,3.3,0.5c1,0.3,1.8,0.7,2.6,1.1c0.7,0.4,1.4,0.8,1.9,1.1c0.6,0.3,1,0.5,1.3,0.5
			c0.5,0,0.7-0.4,0.7-1.1v-18.6c0-0.7,0.3-1,1-1h6.9c0.7,0,1,0.3,1,1V314C-335.7,314.6-336.1,315-336.7,315z M-344.6,287.5
			c0-2.4-0.9-4.5-2.6-6.2c-1.7-1.7-3.8-2.6-6.3-2.6c-1.2,0-2.4,0.2-3.5,0.7s-2,1.1-2.8,1.9c-0.8,0.8-1.4,1.8-1.9,2.8
			c-0.5,1.1-0.7,2.2-0.7,3.4v10.8c0,1.2,0.2,2.3,0.7,3.4c0.5,1.1,1.1,2,1.9,2.8c0.8,0.8,1.7,1.5,2.8,1.9c1.1,0.5,2.2,0.7,3.5,0.7
			c2.5,0,4.6-0.9,6.3-2.6c1.7-1.7,2.6-3.8,2.6-6.2V287.5z"/>
		<path id="XMLID_69_" class="st0" d="M-285.6,314.2c0,0.5-0.4,0.8-1.1,0.8h-8.6l-0.9-0.5l-12.5-20.4c-0.2-0.4-0.5-0.6-0.8-0.6
			c-0.3,0-0.6,0.1-0.8,0.4l-3.7,3.8V314c0,0.7-0.3,1-1,1h-6.9c-0.7,0-1-0.3-1-1v-59.9c0-0.7,0.3-1,1-1h6.9c0.7,0,1,0.3,1,1v30.6
			c0,0.7,0.3,1.1,0.9,1.1c0.3,0,0.6-0.1,0.8-0.4l13-14.3l0.7-0.3h8.3c0.7,0,1.1,0.3,1.1,0.8c0,0.3-0.1,0.6-0.4,0.9l-12.8,13
			c-0.3,0.4-0.4,0.6-0.4,0.7s0.1,0.2,0.2,0.5l16.7,26.9C-285.7,313.8-285.6,314-285.6,314.2z"/>
	</g>
</g>
</svg>
